<svg width="800" height="800" viewBox="0 0 800 800" fill="none" xmlns="http://www.w3.org/2000/svg">
<path d="M400 450C289.725 450 200 539.725 200 650V725C200 738.8 211.2 750 225 750H575C588.8 750 600 738.8 600 725V650C600 539.725 510.275 450 400 450ZM550 700H500V675C500 661.2 488.8 650 475 650C461.2 650 450 661.2 450 675V700H350V675C350 661.2 338.8 650 325 650C311.2 650 300 661.2 300 675V700H250V650C250 567.275 317.275 500 400 500C482.725 500 550 567.275 550 650V700Z" fill="#353639"/>
<path d="M300 303.45V346.55C300 389.8 335.2 425 378.45 425H421.55C464.8 425 500 389.8 500 346.55V303.45C500 260.2 464.8 225 421.55 225H378.45C335.2 225 300 260.2 300 303.45ZM350 303.45C350 287.775 362.775 275 378.45 275H421.55C437.225 275 450 287.775 450 303.45V346.55C450 362.225 437.225 375 421.55 375H378.45C362.775 375 350 362.225 350 346.55V303.45Z" fill="#353639"/>
<path d="M550 275C536.2 275 525 286.2 525 300C525 313.8 536.2 325 550 325C632.725 325 700 392.275 700 475V525H650V500C650 486.2 638.8 475 625 475C611.2 475 600 486.2 600 500V550C600 563.8 611.2 575 625 575H725C738.8 575 750 563.8 750 550V475C750 364.725 660.275 275 550 275Z" fill="#353639"/>
<path d="M528.45 250H571.55C614.8 250 650 214.8 650 171.55V128.45C650 85.2 614.8 50 571.55 50H528.45C485.2 50 450 85.2 450 128.45V171.55C450 214.8 485.2 250 528.45 250ZM500 128.45C500 112.775 512.775 100 528.45 100H571.55C587.225 100 600 112.775 600 128.45V171.55C600 187.225 587.225 200 571.55 200H528.45C512.775 200 500 187.225 500 171.55V128.45Z" fill="#353639"/>
<path d="M75 575H175C188.8 575 200 563.8 200 550V500C200 486.2 188.8 475 175 475C161.2 475 150 486.2 150 500V525H100V475C100 392.275 167.275 325 250 325C263.8 325 275 313.8 275 300C275 286.2 263.8 275 250 275C139.725 275 50 364.725 50 475V550C50 563.8 61.2 575 75 575Z" fill="#353639"/>
<path d="M228.45 250H271.55C314.8 250 350 214.8 350 171.55V128.45C350 85.2 314.8 50 271.55 50H228.45C185.2 50 150 85.2 150 128.45V171.55C150 214.8 185.2 250 228.45 250ZM200 128.45C200 112.775 212.775 100 228.45 100H271.55C287.225 100 300 112.775 300 128.45V171.55C300 187.225 287.225 200 271.55 200H228.45C212.775 200 200 187.225 200 171.55V128.45Z" fill="#353639"/>
</svg>
