<svg width="800" height="800" viewBox="0 0 800 800" fill="none" xmlns="http://www.w3.org/2000/svg">
<path d="M739.13 365.217C739.13 346.828 734.165 328.873 724.897 313.044C748.55 272.656 742.387 220.906 708.567 187.086C701.773 180.292 694.197 174.581 686.059 169.973C686.655 165.516 686.956 161.028 686.956 156.523C686.956 98.9859 640.145 52.175 582.608 52.175C577.994 52.175 573.397 52.4875 568.833 53.1109C550.665 20.9188 516.29 0 478.261 0C447.117 0 419.136 13.7328 400 35.4375C380.864 13.7328 352.883 0 321.739 0C283.709 0 249.334 20.9188 231.167 53.1094C169.183 44.6469 113.044 93.2359 113.044 156.522C113.044 161.027 113.347 165.514 113.94 169.972C105.803 174.578 98.2264 180.292 91.4326 187.084C57.6201 220.895 51.442 272.642 75.1029 313.042C65.8342 328.872 60.8701 346.827 60.8701 365.216C60.8701 403.245 81.7889 437.62 113.979 455.788C113.969 455.867 113.962 455.947 113.951 456.025C105.769 518.867 154.859 573.911 217.392 573.911C222.006 573.911 226.603 573.598 231.167 572.975C240.358 589.263 253.701 602.655 269.565 611.922V669.564C269.565 741.487 328.078 800 400 800C471.922 800 530.434 741.488 530.434 669.566V611.923C546.297 602.658 559.64 589.262 568.833 572.978C573.398 573.6 577.994 573.914 582.608 573.914C645.917 573.914 694.461 517.781 686.02 455.791C718.212 437.622 739.13 403.247 739.13 365.217ZM271.673 535.289C268.595 523.911 258.265 516.014 246.49 516.014C236.256 516.014 232.931 521.739 217.392 521.739C148.469 521.739 148.397 417.391 217.392 417.391C231.798 417.391 243.479 405.711 243.479 391.303C243.479 376.897 231.8 365.216 217.392 365.216C183.423 365.216 153.203 381.539 134.136 406.744C121.192 397.142 113.044 381.895 113.044 365.216C113.044 349.006 120.442 337.391 126.648 330.503C135.589 320.58 135.589 305.506 126.648 295.583C95.5826 261.092 121.542 208.694 165.217 208.694C179.153 208.694 192.256 214.122 202.109 223.975C212.295 234.162 228.814 234.162 239.001 223.975C249.189 213.787 249.189 197.27 239.001 187.083C219.294 167.373 193.089 156.519 165.217 156.519C165.217 127.75 188.622 104.345 217.39 104.345C223.894 104.345 230.412 105.639 236.77 108.192C251.253 114.006 267.594 105.872 271.673 90.7969C277.826 68.0547 298.414 52.1703 321.739 52.1703C350.508 52.1703 373.912 75.575 373.912 104.344V263.491C314.448 275.609 269.564 328.311 269.564 391.302C269.564 405.708 281.244 417.389 295.651 417.389C310.059 417.389 321.739 405.709 321.739 391.302C321.739 357.292 343.55 328.297 373.912 317.528V521.737C373.912 550.506 350.508 573.911 321.739 573.911C298.414 573.913 277.826 558.03 271.673 535.289ZM400 747.827C365.99 747.827 336.995 726.016 326.226 695.653H473.772C463.005 726.016 434.009 747.827 400 747.827ZM478.261 643.478H321.739V626.088C352.883 626.088 380.864 612.355 400 590.648C419.136 612.355 447.117 626.088 478.261 626.088V643.478ZM673.351 330.505C679.558 337.394 686.956 349.009 686.956 365.217C686.956 381.897 678.808 397.144 665.864 406.745C646.798 381.541 616.576 365.217 582.608 365.217C568.201 365.217 556.52 376.897 556.52 391.305C556.52 405.711 568.2 417.392 582.608 417.392C651.275 417.392 651.24 521.741 582.608 521.741C576.105 521.741 569.586 520.447 563.228 517.894C548.745 512.081 532.406 520.212 528.325 535.289C522.172 558.031 501.584 573.916 478.259 573.916C449.49 573.916 426.086 550.511 426.086 521.742V317.53C456.45 328.298 478.259 357.295 478.259 391.303C478.259 405.709 489.939 417.391 504.347 417.391C518.755 417.391 530.434 405.711 530.434 391.303C530.434 328.314 485.551 275.612 426.086 263.492V104.348C426.086 75.5797 449.49 52.175 478.259 52.175C501.584 52.175 522.172 68.0578 528.325 90.8C532.401 105.864 548.734 114.016 563.228 108.195C569.584 105.644 576.105 104.35 582.608 104.35C611.376 104.35 634.781 127.755 634.781 156.523C606.909 156.523 580.705 167.377 560.997 187.088C550.809 197.275 550.809 213.792 560.997 223.98C571.183 234.167 587.701 234.167 597.889 223.98C607.745 214.127 620.845 208.698 634.781 208.698C678.659 208.698 704.326 261.197 673.35 295.586C664.411 305.508 664.411 320.58 673.351 330.505Z" fill="#353639"/>
</svg>
