<svg width="800" height="800" viewBox="0 0 800 800" fill="none" xmlns="http://www.w3.org/2000/svg">
<path d="M603.491 123.366L525.583 201.274L532.825 208.795C527.666 212.963 522.444 217.028 517.375 220.638C509.194 226.481 501.341 231.169 496.017 233.367C495.673 233.52 494.227 233.927 491.355 233.914C486.767 233.964 479.094 232.795 469.692 231.361C460.252 229.938 448.958 228.389 436.228 228.375C425.122 228.338 412.875 229.684 399.98 233.228C387.111 229.697 374.887 228.375 363.809 228.389C351.066 228.389 339.772 229.939 330.331 231.375C320.93 232.809 313.269 233.98 308.683 233.928C305.798 233.953 304.362 233.522 304.07 233.381C298.391 231.056 289.827 225.872 281.011 219.456C276.45 216.141 271.8 212.506 267.188 208.772L274.417 201.275L196.509 123.367L0 326.9L77.9078 404.808L100.713 381.189L151.05 425.122C152.459 433.545 155.116 441.499 158.178 449.047C160.172 453.85 162.358 458.474 164.595 462.819C159.728 470.875 157.073 480.074 157.098 489.399C157.086 498.649 159.627 508.1 164.848 516.499C172.789 529.267 185.508 537.297 199.241 539.838C199.319 548.922 201.834 558.184 206.953 566.417C216.673 582.045 233.495 590.709 250.647 590.683C251.308 590.683 251.981 590.581 252.641 590.556C253.505 597.824 255.894 605.066 259.984 611.647C269.705 627.274 286.538 635.939 303.664 635.913C305.367 635.913 307.058 635.734 308.772 635.569C309.584 642.113 311.758 648.642 315.43 654.538C324.286 668.769 339.608 676.67 355.195 676.633C363.606 676.645 372.22 674.358 379.869 669.606L403.222 655.074C407.822 658.045 412.648 660.663 417.717 662.797C427.158 666.774 437.359 669.213 447.969 669.225C459.606 669.277 471.892 666.088 482.463 658.655C489.348 653.853 495.18 647.27 499.956 639.509C500.694 639.534 501.291 639.663 502.053 639.675C506.894 639.675 512.205 638.95 517.466 637.311C522.763 635.699 528.023 633.283 533.639 630.07C547.03 622.524 555.059 611.419 558.961 601.903C559.825 599.82 560.447 597.863 561.006 595.97C564.247 594.942 567.347 593.683 570.153 592.058C580.508 586.099 587.255 577.041 591.409 567.944C595.577 558.756 597.406 549.216 597.431 540.044C597.431 539.141 597.317 538.264 597.278 537.375C604.05 534.606 610.134 530.756 615.319 526.22C620.63 521.569 625.089 516.158 628.405 509.983C631.709 503.834 633.92 496.795 633.933 489.084C633.945 484.066 632.916 478.78 630.667 473.825C629.942 472.25 628.914 470.802 627.973 469.341C631.927 462.263 635.952 454.286 639.255 445.672C641.733 439.153 643.817 432.319 645.011 425.139L697.495 379.338L722.092 404.811L800 326.9L603.491 123.366ZM216.788 500.669L215.884 501.241C213.534 502.691 211.069 503.338 208.528 503.35C203.814 503.325 199.291 501.025 196.636 496.744C195.188 494.394 194.527 491.916 194.527 489.4C194.552 484.661 196.839 480.163 201.108 477.508L231.969 458.336C234.319 456.875 236.784 456.241 239.298 456.214C244.038 456.264 248.536 458.527 251.205 462.833L267.098 452.961L251.205 462.845C252.653 465.183 253.3 467.647 253.314 470.164C253.288 473.467 252.106 476.619 249.973 479.159L223.469 495.625C221.056 497.124 218.858 498.864 216.788 500.669ZM257.989 551.145C255.639 552.594 253.173 553.255 250.645 553.255C245.919 553.23 241.397 550.942 238.741 546.661C237.291 544.311 236.644 541.82 236.631 539.305C236.642 536.028 237.825 532.877 239.947 530.361L266.462 513.858C268.864 512.37 271.038 510.644 273.108 508.839L274.073 508.255C276.423 506.794 278.902 506.145 281.405 506.145C286.156 506.17 290.641 508.458 293.308 512.752C294.756 515.102 295.405 517.553 295.417 520.083C295.392 524.795 293.119 529.319 288.798 532L257.989 551.145ZM341.83 577.217L311.008 596.377C308.67 597.827 306.205 598.486 303.664 598.486C298.95 598.461 294.427 596.174 291.772 591.892C290.323 589.53 289.677 587.064 289.663 584.536C289.702 579.797 291.975 575.313 296.244 572.644L327.105 553.472C329.455 552.011 331.92 551.377 334.434 551.377C339.173 551.388 343.672 553.675 346.341 557.97C347.788 560.322 348.436 562.786 348.45 565.314C348.423 570.025 346.15 574.522 341.83 577.217ZM389.614 608.47C390.591 610.033 391.011 611.659 391.023 613.361C390.998 616.525 389.486 619.536 386.577 621.353L360.111 637.792C358.536 638.783 356.909 639.202 355.194 639.202C352.019 639.189 349.008 637.652 347.216 634.781C346.238 633.192 345.817 631.566 345.805 629.866C345.842 626.675 347.355 623.689 350.213 621.911H350.225L376.716 605.445C378.33 604.442 379.944 604.022 381.633 604.022C384.822 604.047 387.808 605.559 389.598 608.444L405.505 598.584L389.614 608.47ZM595.423 492.283C594.064 494.913 590.964 498.342 587.039 500.744C583.112 503.172 578.552 504.594 574.181 504.581C572.63 504.581 571.131 504.847 569.67 505.228C567.002 504.644 564.333 503.831 561.705 502.789C553.561 499.613 545.952 494.467 540.577 490.122C537.883 487.95 535.748 485.994 534.325 484.634L532.75 483.072L532.406 482.716L532.355 482.666H532.344C527.108 476.974 518.241 476.592 512.536 481.827C506.831 487.063 506.438 495.93 511.686 501.672C512.155 502.155 519.208 509.853 530.756 517.783C536.55 521.747 543.473 525.788 551.439 528.913C553.281 529.638 555.2 530.309 557.17 530.92C557.717 532.152 558.416 533.322 559.241 534.427L559.203 534.453C559.305 534.528 560.067 536.944 560.003 540.044C560.094 545.214 558.212 551.986 555.506 555.72C554.186 557.627 552.839 558.833 551.531 559.583C550.197 560.32 548.85 560.803 546.322 560.841L545.419 560.828C544.884 560.803 544.378 560.892 543.856 560.917C543.831 560.917 543.819 560.917 543.819 560.917C531.647 560.969 520.316 555.747 511.955 550.03C507.788 547.209 504.445 544.338 502.197 542.23C501.091 541.188 500.241 540.324 499.719 539.791L499.173 539.206L499.084 539.092H499.072C494.003 533.274 485.173 532.638 479.316 537.708C473.445 542.789 472.811 551.645 477.892 557.514L477.88 557.503C478.427 558.113 484.906 565.581 496.177 573.256C503.595 578.274 513.277 583.47 524.775 586.469C524.648 586.8 524.572 587.13 524.419 587.461C522.945 590.789 520.836 594.219 515.094 597.574C511.217 599.786 508.448 600.941 506.505 601.525C504.548 602.109 503.456 602.225 502.058 602.236C500.242 602.263 497.509 601.855 492.961 600.927C492.136 600.75 491.311 600.699 490.484 600.649C490.178 600.52 489.888 600.406 489.556 600.241C484.906 598.055 479.239 594.103 475.059 590.738C472.962 589.074 471.184 587.549 469.964 586.469L468.592 585.224L468.275 584.919L468.211 584.869C462.608 579.508 453.714 579.711 448.353 585.313C443.005 590.916 443.208 599.809 448.811 605.158C449.103 605.424 455.011 611.092 463.294 617.038C464.767 618.08 466.394 619.134 468.02 620.175C465.733 623.822 463.345 626.325 461.008 627.989C457.272 630.556 453.206 631.775 447.972 631.802C443.284 631.814 437.769 630.658 432.256 628.32C430.427 627.558 428.636 626.478 426.831 625.475C427.886 621.536 428.47 617.458 428.458 613.366C428.47 604.942 426.158 596.328 421.406 588.692C413.339 575.72 399.884 568.097 385.794 566.852C385.794 566.342 385.881 565.836 385.881 565.314C385.894 556.078 383.353 546.6 378.144 538.214V538.241C368.412 522.563 351.564 513.897 334.437 513.934C333.778 513.934 333.103 514.049 332.444 514.075C331.58 506.794 329.191 499.578 325.102 492.997H325.113C317.172 480.203 304.442 472.175 290.708 469.658C290.62 460.574 288.117 451.311 282.995 443.078H283.008C273.289 427.439 256.428 418.761 239.302 418.786C230.039 418.786 220.6 421.328 212.202 426.536L194.173 437.742C193.741 436.752 193.195 435.786 192.802 434.794C189.664 427.286 187.694 419.878 187.478 414.772L187.059 406.869L126.75 354.22L241.094 235.795C246.939 240.586 252.936 245.338 259.086 249.784C269.275 257.128 279.375 263.608 289.692 267.953C296.312 270.684 302.766 271.358 308.687 271.37C318.166 271.333 326.855 269.706 335.914 268.384C336.498 268.283 337.108 268.233 337.705 268.142C325.255 278.827 314.391 290.389 305.205 301.152C297.467 310.236 290.937 318.799 285.766 325.786C280.659 332.736 276.72 338.339 274.992 340.55C266.48 351.628 262.822 364.88 262.745 378.156C262.783 390.506 266.061 403.363 274.573 414.227C278.817 419.6 284.458 424.302 291.191 427.503C297.912 430.73 305.611 432.381 313.628 432.381C323.577 432.355 334.006 429.942 345.048 425.303C379.708 410.642 415.434 400.872 442.317 394.85C455.759 391.852 467.003 389.769 474.842 388.459C476.317 388.217 477.548 388.014 478.769 387.813L596.38 489.2L596.43 489.225L596.469 489.289C596.453 489.653 596.273 490.708 595.423 492.283ZM609.031 406.867L608.623 414.77C608.408 419.292 606.87 425.67 604.291 432.278C602.981 435.733 601.381 439.216 599.705 442.644L496.705 353.861C492.703 350.406 487.367 348.805 482.12 349.466C481.206 349.644 405.661 359.122 330.484 390.809C323.002 393.972 317.386 394.95 313.625 394.925C310.564 394.925 308.695 394.378 307.311 393.717C305.303 392.739 303.867 391.353 302.445 388.699C301.086 386.083 300.158 382.22 300.172 378.155C300.095 372.311 302.18 366.364 304.516 363.545C307.427 359.784 310.983 354.652 315.887 348.019C323.166 338.159 333.052 325.403 344.841 312.991C356.605 300.578 370.289 288.559 384.633 280.122C404.034 268.727 420.564 265.867 436.23 265.816C445.872 265.803 455.12 267.009 464.142 268.369C473.187 269.703 481.903 271.303 491.356 271.355C497.264 271.342 503.68 270.669 510.275 267.975L510.362 267.95C520.68 263.605 530.78 257.125 540.969 249.781C547.081 245.359 553.103 240.583 558.922 235.806L671.477 352.375L609.031 406.867Z" fill="#353639"/>
</svg>
